:SAMPLES-PER-SECOND 30
:FRAME-RANGE 1-564
:FULLY-SPECIFIED
:DEGREES
300
root  15.7038 39.0984 -31.5499 167.709 20.2769 176.986
RightUpLeg  29.945 11.7951 2.95989
RightLeg  9.79977 9.38353 -4.17709
RightFoot  -15.7443 0.124842 6.02159
RightToes  -1.74624e-010 0 -3.6325e-017
Spine  9.40598 5.38058 3.13615
Spine1  2.12582 6.67429 -6.61636
HEad  2.1974 21.8159 -4.14793
LeftShoulder1  2.89054 -3.44114 -35.5701
LeftArm  14.0395 35.7075 -26.1094
LeftForeArm  1.39993 -4.2807 -17.7978
LeftHand  -0.971199 -3.31977 13.1607
RightShoulder  15.3768 14.5391 71.6337
RightArm  12.4203 14.3064 -2.60919
RightForeArm  12.9262 4.07139 15.0761
RightHand  0.747121 18.9591 3.04254
LeftUpLeg  -1.71551 1.90482 -0.57165
LeftLeg  -4.79132 11.3241 1.62499
LeftFoot  7.16029 -0.243565 1.2278
LeftToes  -6.43926e-010 8.38805e-011 -3.16407e-011
301
root  15.5905 39.1849 -33.1458 167.048 20.2237 175.435
RightUpLeg  28.4826 21.7932 4.78439
RightLeg  19.2118 2.26885 0.672158
RightFoot  -12.5438 0.0169207 9.72549
RightToes  -1.74624e-010 0 -3.6325e-017
Spine  8.77598 5.56601 1.77245
Spine1  1.47366 6.69385 -7.25322
HEad  3.94816 23.0623 -2.95066
LeftShoulder1  2.87367 -3.4268 -35.4161
LeftArm  10.9248 37.2726 -25.0384
LeftForeArm  3.01716 -0.91332 -18.4475
LeftHand  -0.771205 -1.80694 12.6091
RightShoulder  15.1979 14.046 72.5467
RightArm  14.4514 14.0999 -2.5777
RightForeArm  10.9591 6.04374 14.6095
RightHand  0.421035 18.9316 1.50394
LeftUpLeg  -0.384271 3.00778 -1.939
LeftLeg  -2.54167 10.3685 0.107479
LeftFoot  6.32837 -0.0951262 0.364415
LeftToes  -6.43926e-010 8.38805e-011 -3.16407e-011
302
root  15.3877 39.2473 -34.6513 166.656 19.9116 174.588
RightUpLeg  22.3687 18.3387 -0.888287
RightLeg  30.6167 8.14154 4.94983
RightFoot  -6.06386 -0.765755 15.6243
RightToes  -1.74624e-010 0 -3.6325e-017
Spine  8.55268 5.61764 2.17342
Spine1  0.856924 6.82475 -8.79935
HEad  5.67036 24.8457 -2.3618
LeftShoulder1  2.91624 -3.58249 -35.1136
LeftArm  6.89025 37.5594 -24.5975
LeftForeArm  6.9211 2.67896 -18.4668
LeftHand  -0.807148 -2.14726 12.6144
RightShoulder  14.6525 13.5332 72.1455
RightArm  16.9549 12.8898 -1.80277
RightForeArm  7.94265 8.631 13.6576
RightHand  0.536367 19.2543 2.01417
LeftUpLeg  0.734689 3.24402 -3.63663
LeftLeg  -0.423231 9.35527 -0.28531
LeftFoot  5.47983 -0.550185 3.49477
LeftToes  -6.43926e-010 8.38805e-011 -3.16407e-011
303
root  15.1978 39.2557 -36.0214 166.258 19.7504 174.003
RightUpLeg  15.3618 17.2793 -3.78788
RightLeg  43.3283 8.03652 7.76577
RightFoot  3.01117 -2.30389 18.3194
RightToes  -1.74624e-010 0 -3.6325e-017
Spine  9.14591 5.73429 2.35015
Spine1  -0.223253 6.82763 -9.50257
HEad  6.27037 28.7971 -2.65827
LeftShoulder1  2.87286 -3.45197 -35.258
LeftArm  4.62316 37.4295 -24.0894
LeftForeArm  8.42689 3.62635 -18.2159
LeftHand  -0.784865 -2.91911 11.185
RightShoulder  14.0519 13.1551 71.0307
RightArm  23.3277 11.6991 -0.736298
RightForeArm  1.23868 12.7044 11.9111
RightHand  0.931265 19.2366 3.86039
LeftUpLeg  2.03513 2.42785 -5.7557
LeftLeg  1.07392 9.16934 0.519679
LeftFoot  4.99766 -0.963797 6.49428
LeftToes  -6.43926e-010 8.38805e-011 -3.16407e-011
304
root  15.092 39.2627 -37.3163 165.319 18.8066 173.343
RightUpLeg  9.61434 16.8736 -4.76112
RightLeg  53.348 4.56364 6.18838
RightFoot  11.6568 -3.62562 18.0872
RightToes  -1.74624e-010 0 -3.6325e-017
Spine  9.82336 5.73241 1.60752
Spine1  -0.479073 6.57007 -9.26071
HEad  5.43404 33.8944 -3.16821
LeftShoulder1  2.84014 -3.32114 -35.5624
LeftArm  3.042 36.3205 -23.4813
LeftForeArm  7.49849 2.81909 -17.9879
LeftHand  -0.765376 -2.65101 11.2596
RightShoulder  13.8577 13.0117 70.7283
RightArm  28.4894 11.2441 -0.477852
RightForeArm  -2.7769 15.9877 9.86654
RightHand  1.34786 19.5325 5.72625
LeftUpLeg  4.24442 2.00864 -7.76161
LeftLeg  2.10667 8.86461 1.09118
LeftFoot  3.00206 -0.925745 7.20205
LeftToes  -6.43926e-010 8.38805e-011 -3.16407e-011
305
root  15.0347 39.2507 -38.58 164.63 16.895 173.089
RightUpLeg  4.84592 16.3324 -4.77611
RightLeg  61.0172 1.95296 3.32266
RightFoot  7.945 -2.59011 15.4826
RightToes  -1.74624e-010 0 -3.6325e-017
Spine  9.94509 5.77171 0.841373
Spine1  0.00451981 6.3052 -8.29675
HEad  4.83365 37.9477 -2.94707
LeftShoulder1  2.80025 -3.2037 -35.6922
LeftArm  3.03286 33.4551 -23.4023
LeftForeArm  4.25225 1.17722 -17.9069
LeftHand  -0.77316 -2.2528 11.935
RightShoulder  13.6025 12.7771 70.4821
RightArm  33.5356 10.4639 -0.734444
RightForeArm  -5.91431 19.5627 7.20494
RightHand  1.2346 19.667 5.17283
LeftUpLeg  6.10619 3.04728 -8.54
LeftLeg  3.81772 7.31465 0.362042
LeftFoot  0.280482 -0.901178 8.81941
LeftToes  -6.43926e-010 8.38805e-011 -3.16407e-011
306
root  14.9715 39.2742 -39.7948 164.392 14.2395 173.5
RightUpLeg  0.398397 15.6346 -3.90802
RightLeg  65.0296 0.926988 1.57653
RightFoot  3.84801 -1.31118 10.0084
RightToes  -1.74624e-010 0 -3.6325e-017
Spine  10.3368 5.64521 1.75392
Spine1  0.0277994 6.34324 -8.64113
HEad  4.59944 40.6183 -2.28762
LeftShoulder1  2.81194 -3.33806 -35.0581
LeftArm  3.26352 30.5072 -23.8498
LeftForeArm  0.620728 -2.57388 -17.2227
LeftHand  -0.916299 -3.5297 12.1567
RightShoulder  13.327 12.522 70.2139
RightArm  34.6289 9.45438 -0.668308
RightForeArm  -6.64674 21.7852 5.77678
RightHand  0.786039 19.5304 3.1368
LeftUpLeg  8.03832 2.81942 -9.4914
LeftLeg  4.81548 5.30182 0.848447
LeftFoot  -1.63086 -0.818632 9.72808
LeftToes  -6.43926e-010 8.38805e-011 -3.16407e-011
307
root  14.909 39.3339 -40.9649 164.196 11.0535 174.458
RightUpLeg  -3.15539 15.327 -2.5753
RightLeg  65.0154 0.612842 0.83447
RightFoot  0.269527 -0.877254 8.6305
RightToes  -1.74624e-010 0 -3.6325e-017
Spine  11.4257 5.37738 3.40635
Spine1  -0.699094 6.4161 -9.10197
HEad  4.56418 41.9481 -1.78321
LeftShoulder1  2.78466 -3.30908 -34.8363
LeftArm  4.09096 27.5585 -24.3139
LeftForeArm  -28.4262 -8.92698 -16.1265
LeftHand  2.31412 15.7864 25.3644
RightShoulder  13.2328 12.3867 70.2919
RightArm  33.2013 8.70455 -0.930407
RightForeArm  -7.33594 23.165 5.41593
RightHand  0.751736 19.4073 2.99668
LeftUpLeg  10.1512 3.05993 -9.41068
LeftLeg  5.69504 2.17857 0.842393
LeftFoot  -3.6507 -0.673624 10.3201
LeftToes  -6.43926e-010 8.38805e-011 -3.16407e-011
308
root  14.875 39.3964 -42.0729 164.189 7.47383 175.403
RightUpLeg  -6.25383 15.2706 -1.55739
RightLeg  61.6472 -0.0284017 -0.580454
RightFoot  -3.58308 -0.601589 8.49586
RightToes  -1.74624e-010 0 -3.6325e-017
Spine  12.5348 5.19098 4.83239
Spine1  -1.62951 6.56991 -9.38451
HEad  3.66478 42.0931 -2.02642
LeftShoulder1  2.76231 -3.24732 -34.8777
LeftArm  6.00627 23.8383 -24.9861
LeftForeArm  -46.2633 -15.4814 -12.9761
LeftHand  5.60585 21.1675 38.834
RightShoulder  13.2953 12.4659 70.2778
RightArm  31.7501 8.45665 -0.932664
RightForeArm  -7.78145 24.3683 5.60328
RightHand  0.822119 19.3738 3.32848
LeftUpLeg  12.1734 2.89169 -9.37407
LeftLeg  6.09511 -0.969226 1.1729
LeftFoot  -5.09646 -0.569162 10.9619
LeftToes  -6.43926e-010 8.38805e-011 -3.16407e-011
309
root  14.8402 39.4739 -43.1648 164.149 3.54855 176.364
RightUpLeg  -8.30987 15.5889 -0.95354
RightLeg  55.1023 -1.58992 -2.8623
RightFoot  -6.35329 -0.323257 6.42096
RightToes  -1.74624e-010 0 -3.6325e-017
Spine  13.1815 5.06249 6.41452
Spine1  -1.87186 6.88138 -9.46697
HEad  2.38148 41.0078 -2.82468
LeftShoulder1  2.78865 -3.31774 -34.8428
LeftArm  5.07162 19.0237 -25.7696
LeftForeArm  -53.1356 -19.5684 -9.98304
LeftHand  6.87108 21.4951 45.7534
RightShoulder  13.6466 13.0164 69.8378
RightArm  30.1248 8.58875 -0.442438
RightForeArm  -6.10015 25.2757 5.72696
RightHand  0.764137 19.363 3.06087
LeftUpLeg  14.5783 2.74801 -9.06167
LeftLeg  5.63696 -4.49131 1.46711
LeftFoot  -6.10259 -0.497706 11.6417
LeftToes  -6.43926e-010 8.38805e-011 -3.16407e-011
310
root  14.8119 39.5035 -44.2141 164.399 -0.96875 176.964
RightUpLeg  -9.36198 16.4869 -1.52948
RightLeg  45.2803 -4.55636 -5.21802
RightFoot  -7.79843 -0.295236 7.81665
RightToes  -1.74624e-010 0 -3.6325e-017
Spine  13.3625 4.97334 7.52848
Spine1  -2.0032 7.11452 -9.50875
HEad  1.48045 39.3195 -3.87761
LeftShoulder1  2.87069 -3.57822 -34.5057
LeftArm  0.905367 13.6758 -26.4765
LeftForeArm  -52.131 -20.5453 -8.96311
LeftHand  6.83539 20.1292 49.3062
RightShoulder  14.1463 13.7814 69.3146
RightArm  28.1878 9.13046 -0.00961884
RightForeArm  -4.80135 26.3271 5.90484
RightHand  0.56958 19.098 2.18735
LeftUpLeg  16.2898 2.43975 -8.91075
LeftLeg  5.63076 -8.33222 1.71297
LeftFoot  -7.4156 -0.358258 11.716
LeftToes  -6.43926e-010 8.38805e-011 -3.16407e-011
311
root  14.7807 39.4976 -45.2873 165.255 -5.2039 176.973
RightUpLeg  -9.54458 20.2747 -3.45423
RightLeg  32.4338 -7.77934 -5.53237
RightFoot  -6.45104 -0.38858 8.05693
RightToes  -1.74624e-010 0 -3.6325e-017
Spine  12.7151 5.1389 8.12699
Spine1  -1.93464 7.45764 -9.37879
HEad  1.05913 37.6454 -5.30014
LeftShoulder1  2.90254 -3.71508 -34.1842
LeftArm  -0.943501 9.14329 -26.4314
LeftForeArm  -50.923 -21.4127 -8.25231
LeftHand  6.57626 18.8665 51.5903
RightShoulder  14.8345 14.8093 68.7392
RightArm  26.1754 10.1478 0.348613
RightForeArm  -3.91869 27.4331 6.12051
RightHand  1.04301 19.5915 4.30975
LeftUpLeg  17.7234 1.67641 -9.45829
LeftLeg  4.88637 -11.4834 2.38739
LeftFoot  -8.21544 -0.284925 12.2109
LeftToes  -6.43926e-010 8.38805e-011 -3.16407e-011
